<?xml version="1.0" encoding="UTF-8" standalone="no"?>
<!-- Created with Inkscape (http://www.inkscape.org/) -->

<svg
   xmlns:dc="http://purl.org/dc/elements/1.1/"
   xmlns:cc="http://creativecommons.org/ns#"
   xmlns:rdf="http://www.w3.org/1999/02/22-rdf-syntax-ns#"
   xmlns:svg="http://www.w3.org/2000/svg"
   xmlns="http://www.w3.org/2000/svg"
   xmlns:sodipodi="http://sodipodi.sourceforge.net/DTD/sodipodi-0.dtd"
   xmlns:inkscape="http://www.inkscape.org/namespaces/inkscape"
   width="440"
   height="280"
   viewBox="0 0 439.99998 280"
   id="svg2"
   version="1.1"
   inkscape:version="0.91 r13725"
   sodipodi:docname="promo-tile-small.svg"
   inkscape:export-filename="/home/matt/work/shitList/promo/promo-tile440x280-2.png"
   inkscape:export-xdpi="90"
   inkscape:export-ydpi="90">
  <defs
     id="defs4" />
  <sodipodi:namedview
     id="base"
     pagecolor="#353535"
     bordercolor="#666666"
     borderopacity="1.0"
     inkscape:pageopacity="1"
     inkscape:pageshadow="2"
     inkscape:zoom="2.8"
     inkscape:cx="120.78085"
     inkscape:cy="139.77265"
     inkscape:document-units="px"
     inkscape:current-layer="layer1"
     showgrid="false"
     units="px"
     inkscape:window-width="1920"
     inkscape:window-height="1025"
     inkscape:window-x="0"
     inkscape:window-y="0"
     inkscape:window-maximized="1" />
  <metadata
     id="metadata7">
    <rdf:RDF>
      <cc:Work
         rdf:about="">
        <dc:format>image/svg+xml</dc:format>
        <dc:type
           rdf:resource="http://purl.org/dc/dcmitype/StillImage" />
        <dc:title></dc:title>
      </cc:Work>
    </rdf:RDF>
  </metadata>
  <g
     inkscape:label="Layer 1"
     inkscape:groupmode="layer"
     id="layer1"
     transform="translate(0,-772.36219)">
    <g
       id="g4265"
       transform="translate(0.21324843,-5.0000001e-6)">
      <path
         style="font-style:normal;font-weight:normal;font-size:medium;font-family:Dialog;color-interpolation:auto;fill:#d28e32;fill-opacity:1;stroke:#d28e32;stroke-width:0.85300004;stroke-linecap:square;stroke-linejoin:miter;stroke-miterlimit:10;stroke-dasharray:none;stroke-dashoffset:0;stroke-opacity:1;color-rendering:auto;image-rendering:auto;shape-rendering:auto;text-rendering:auto"
         inkscape:connector-curvature="0"
         id="path9"
         d="m 429.99982,990.88644 c 0,5.83881 -3.31934,11.11776 -9.95802,15.83686 -5.19894,3.5992 -11.2377,6.2787 -18.1163,8.0384 -10.31797,2.6394 -15.83687,3.9591 -16.55671,3.9591 -0.3999,0 -1.03978,-0.06 -1.91962,-0.18 -0.87978,-0.1199 -1.51965,-0.1799 -1.91961,-0.1799 -1.67965,0 -4.15914,0.5399 -7.43846,1.6196 -3.27939,1.0799 -5.75891,1.6198 -7.43855,1.6198 l -20.75581,0 c -1.35971,0 -3.19935,0.3199 -5.51893,0.9598 -2.63945,0.7198 -4.47908,1.1197 -5.51885,1.1997 -4.71907,0.4799 -10.15798,0.7199 -16.31672,0.7199 -13.11736,0 -23.19534,-0.4799 -30.23392,-1.4397 -0.39991,-0.08 -1.13977,-0.28 -2.21959,-0.5999 -1.07976,-0.32 -1.89959,-0.48 -2.4595,-0.48 -0.31993,0 -0.8798,0.18 -1.67962,0.54 -0.79986,0.3599 -1.47975,0.5399 -2.03965,0.5399 -7.91837,0 -13.19728,-0.28 -15.83673,-0.8399 -1.1198,-0.3999 -2.87948,-1.0398 -5.27903,-1.9196 -2.39949,-0.8798 -5.07893,-1.9596 -8.03832,-3.2394 -0.23996,-0.3999 -0.59988,-0.9198 -1.07976,-1.5596 -1.43974,-0.7199 -3.39936,-1.7597 -5.87888,-3.1194 -9.19817,-6.0788 -13.79725,-19.19612 -13.79725,-39.35213 0,-3.75921 2.23955,-8.1583 6.71865,-13.19731 3.83923,-4.31911 7.79844,-7.63844 11.87763,-9.95802 2.87943,-1.19977 7.0786,-3.15937 12.59754,-5.8788 -0.16,-1.27974 -0.35998,-3.19935 -0.59995,-5.75884 0.63987,-0.71984 0.95981,-1.51968 0.95981,-2.39952 0,-0.3999 -0.1,-1.03977 -0.29989,-1.91961 -0.19998,-0.87984 -0.29997,-1.51971 -0.29997,-1.91961 0,-3.35936 1.11978,-7.03862 3.35933,-11.03779 0.79981,-0.79981 1.95957,-2.03957 3.47928,-3.71927 4.55912,-5.43891 9.39817,-8.71823 14.51714,-9.83798 7.2785,-1.59968 12.23747,-2.39952 14.87693,-2.39952 2.23961,0 4.39919,0.15997 6.47874,0.4799 0.47993,0.0799 1.33975,0.3399 2.57945,0.77979 1.23975,0.43995 2.0996,0.65993 2.57953,0.65993 l 13.4373,0 c 0.79982,0 1.99956,0.11998 3.59924,0.35994 1.59968,0.23991 2.79945,0.35987 3.59932,0.35987 1.19977,0 3.55928,-1.07976 7.07851,-3.23929 4.4791,-2.71948 7.51851,-4.79909 9.11825,-6.23883 2.95939,-2.63945 4.95898,-5.67881 5.99875,-9.11808 0.39991,-1.35977 0.59986,-1.95965 0.59986,-1.79966 0,-1.83965 -0.63987,-4.15919 -1.91961,-6.95864 -0.47988,-0.95981 -1.61964,-1.81963 -3.4193,-2.57945 -1.79966,-0.75983 -3.05942,-1.81963 -3.77925,-3.1794 -4.39914,1.51971 -6.5187,3.95921 -6.35871,7.31851 l -1.1998,0 c -1.11975,0 -1.67962,-1.19974 -1.67962,-3.59923 0,-7.35852 7.19856,-11.03779 21.59566,-11.03779 0.71984,0 3.63925,0.71984 8.75822,2.15953 6.63868,1.83965 11.83765,5.67887 15.59691,11.51768 3.59926,5.51894 5.39889,11.83768 5.39889,18.95624 0,5.91878 -0.27994,9.91798 -0.83985,11.99759 -0.79981,1.19977 -1.87957,2.87944 -3.23928,5.03903 8.87817,0.15994 15.55681,3.19929 20.03591,9.11808 2.15958,2.87948 3.43932,8.51837 3.83922,16.91666 6.87865,2.07956 12.91745,7.91837 18.11638,17.51644 4.55907,8.39829 6.83861,18.55627 6.83861,30.47392 z m -34.07315,-55.30895 c 0,-2.15952 -0.91982,-4.27909 -2.75947,-6.3587 -3.83923,-4.39908 -8.23833,-6.59861 -13.19731,-6.59861 l -2.03956,0 c -5.199,0 -9.1982,0.15994 -11.99759,0.47982 -2.31958,3.11939 -4.35917,4.67908 -6.11879,4.67908 -0.79987,0 -1.6397,-0.87981 -2.51948,-2.63943 l -23.51527,0 c -0.23997,0 -0.71987,-0.31994 -1.43971,-0.95981 -1.27974,-0.08 -2.1196,-0.51994 -2.51956,-1.31975 0.5599,-0.23997 1.35977,-0.79987 2.3996,-1.67971 1.51966,0 2.75938,0.47993 3.71919,1.4398 0.79987,-0.32 2.15961,-1.51976 4.07922,-3.59932 1.11975,-0.0799 1.71964,-0.11996 1.79966,-0.11996 1.11975,0 2.07956,0.5199 2.87943,1.55967 0.71983,-0.23997 1.83958,-0.67989 3.35924,-1.31976 0.5599,-1.19977 1.71969,-1.83964 3.47936,-1.91961 2.23955,-0.15994 3.55928,-0.35989 3.95918,-0.59986 0.79982,-0.71984 1.99958,-1.43971 3.59932,-2.15961 1.27975,-1.83959 2.19954,-2.83938 2.75938,-2.99937 l 4.19918,0 c 0.3999,-1.11975 1.15976,-2.63943 2.27956,-4.55904 -0.5599,0 -1.15978,-0.31994 -1.79965,-0.95981 l 0,-3.35933 c 0.63987,-0.9598 1.43971,-1.39972 2.39951,-1.31975 l 2.75947,0 c -0.23997,-0.39991 -1.1198,-1.27972 -2.63951,-2.63943 l 0,-3.23937 c 1.03983,-0.63987 2.51956,-1.63969 4.43917,-2.99946 -1.1198,-1.19972 -1.67971,-2.07952 -1.67971,-2.63943 0,-0.23997 0.0799,-0.61988 0.23991,-1.13974 0.16,-0.51991 0.24,-0.89985 0.24,-1.13982 0,-0.3999 -0.37992,-1.17975 -1.13974,-2.33954 -0.75989,-1.15973 -1.17981,-1.93958 -1.25978,-2.33954 -0.15994,-1.99958 -1.27972,-4.79901 -3.35932,-8.39827 -0.55991,-0.47988 -2.81945,-1.23973 -6.77863,-2.27957 -3.95924,-1.03977 -6.41874,-1.55966 -7.37849,-1.55966 -3.43932,0 -5.55892,0.59988 -6.35878,1.79966 0.87984,0.0799 2.11959,0.47988 3.71927,1.19972 4.39913,3.67928 6.5987,7.55852 6.5987,11.63772 0,2.15952 -0.55991,4.87895 -1.67971,8.15828 -1.51965,4.4791 -5.2389,8.55829 -11.15774,12.23758 -1.91961,1.51971 -4.35912,3.23937 -7.3185,5.15898 -3.67929,1.27975 -7.1586,1.91962 -10.43793,1.91962 -3.11939,0 -7.81843,-0.35995 -14.09713,-1.07985 -6.27876,-0.71984 -10.97784,-1.07976 -14.09722,-1.07976 -1.35971,0 -4.899,0.35992 -10.61786,1.07976 -5.71886,0.7199 -8.97819,1.2798 -9.778,1.67971 -0.39991,0.47993 -1.11978,1.1198 -2.15961,1.91961 -0.63987,0.15994 -1.4797,0.51986 -2.51947,1.07976 -4.23914,4.0792 -6.3587,10.03802 -6.3587,17.87647 0,8.9582 6.63865,15.47687 19.91595,19.55601 2.31952,0.31994 5.71883,0.87984 10.19793,1.6797 6.63868,1.59968 9.1182,2.39952 7.43855,2.39952 1.75967,0 4.15919,-0.43991 7.19855,-1.31975 3.5193,-1.03978 5.85884,-1.63967 7.01862,-1.79966 1.15973,-0.15995 4.13912,-0.23991 8.93815,-0.23991 1.1198,-1.43974 1.95966,-2.15961 2.51956,-2.15961 0.55985,0 1.31967,0.19995 2.27948,0.59986 0.95981,0.39996 1.71966,0.59994 2.27956,0.59994 0.87984,0 2.17958,-0.08 3.89921,-0.23999 1.71963,-0.15995 2.97939,-0.23991 3.77925,-0.23991 -0.23997,-0.87984 -0.35995,-1.63969 -0.35995,-2.27957 0,-1.59967 0.9998,-2.39951 2.99938,-2.39951 2.95944,0 4.43917,1.0398 4.43917,3.11941 0,0.31988 -0.04,0.5998 -0.11996,0.83977 l 1.43963,0 c 1.43974,-1.19972 2.95945,-1.79958 4.55913,-1.79958 2.71942,0 3.79921,1.19975 3.23937,3.59924 1.43968,0.79986 2.2795,1.1998 2.51947,1.1998 0.3999,0 0.99979,-0.19998 1.79966,-0.59994 0.79981,-0.39991 1.35968,-0.63985 1.67962,-0.71982 l 3.59932,0 c 0.79981,0 1.59965,-0.19995 2.39952,-0.59985 0.79981,-0.39997 1.2397,-0.59995 1.31967,-0.59995 0.47993,0 1.15981,0.17996 2.03965,0.53988 0.87984,0.35993 1.55969,0.53988 2.03957,0.53988 0.71984,0 1.77964,-0.67985 3.17939,-2.03956 1.3997,-1.35971 2.97939,-2.03957 4.73906,-2.03957 0.31988,0 0.79975,0.04 1.43963,0.11995 0.63987,0.0799 1.1198,0.11996 1.43979,0.11996 -0.5599,-0.95975 -0.83985,-1.83957 -0.83985,-2.63943 0,-1.03978 0.4799,-1.79964 1.43971,-2.27956 0.79981,-0.08 1.99956,-0.15995 3.59923,-0.23991 0.55991,-1.35971 1.51972,-3.39932 2.87943,-6.1188 0.0799,-0.15999 0.63987,-0.47992 1.6797,-0.9598 0.79981,-0.3999 1.19972,-1.11978 1.19972,-2.15961 z m 24.83503,36.95266 c 0,-3.35935 -2.59948,-8.11841 -7.79841,-14.27715 -0.39997,-0.47993 -3.2394,-2.59953 -8.51831,-6.35879 -1.19978,2.23961 -3.43933,5.27902 -6.71865,9.11825 -6.39872,4.71901 -12.8774,7.07852 -19.43606,7.07852 -5.11897,0 -11.87763,-1.23976 -20.27598,-3.71928 -6.8786,-1.99958 -10.83781,-2.95939 -11.87764,-2.87942 l -34.07307,3.23937 c -0.47993,0.08 -1.07982,0.12004 -1.79966,0.12004 -9.67804,0 -19.19614,-1.15979 -28.5543,-3.47936 -3.51929,-0.87978 -9.71803,-5.35888 -18.5962,-13.4373 -2.31958,0.0799 -6.19882,2.19956 -11.63772,6.35878 -6.79862,5.19894 -10.95779,10.31791 -12.4775,15.35692 -0.79981,2.63945 -1.19971,6.8386 -1.19971,12.59744 0,3.03937 0.83982,6.99855 2.51947,11.87755 1.67965,4.87907 3.47928,8.51838 5.39889,10.91788 1.67965,2.1595 4.15917,3.6792 7.43855,4.5591 2.87942,0.4799 5.75884,0.9997 8.63826,1.5596 0.87984,0.3999 2.23955,0.9198 4.07914,1.5597 1.91962,0.3199 4.23917,0.4799 6.95865,0.4799 0.63987,0 1.53967,-0.06 2.6994,-0.1799 1.15979,-0.12 2.05962,-0.18 2.69949,-0.18 0.87984,0 1.99961,0.2 3.35933,0.5999 1.67964,0.3999 2.79942,0.6399 3.35932,0.7198 3.99922,0.5599 7.59852,0.8399 10.79787,0.8399 1.11975,0 5.39887,-0.7599 12.83736,-2.2796 1.19978,-2.1596 2.23957,-3.2394 3.11941,-3.2394 1.19972,0 2.11951,0.2 2.75939,0.6 0.87984,0.7198 1.47972,1.1197 1.79966,1.1997 0.47993,-0.9598 1.27976,-1.4397 2.39951,-1.4397 0.47993,0 1.15982,0.12 2.03966,0.3599 0.87978,0.24 1.55964,0.36 2.03957,0.36 l 3.47928,0 c -0.0799,-1.3598 1.07978,-2.6395 3.47928,-3.8392 2.0796,-1.0398 3.91925,-1.5597 5.51893,-1.5597 2.31952,0 3.47928,0.8398 3.47928,2.5195 l 2.27956,0 c 0.47988,0 1.37968,-0.5599 2.69941,-1.6797 1.31978,-1.1198 2.13962,-1.6797 2.45949,-1.6797 4.63909,0 7.41856,1.0998 8.33838,3.2994 0.91982,2.1995 1.89962,3.2993 2.9394,3.2993 0.5599,0 1.15979,-0.1199 1.79966,-0.3599 -0.0799,-0.5599 -0.11996,-1.0398 -0.11996,-1.4397 0,-2.6395 0.75983,-3.9592 2.27948,-3.9592 l 3.47937,0.4798 c 0.31987,0.24 0.67979,0.9199 1.07976,2.0397 l 1.43971,0 c 3.51929,0 6.3587,-0.8799 8.51822,-2.6395 0.08,-0.6399 0.28001,-1.5197 0.59995,-2.6395 0.31993,-0.6398 1.29973,-1.6996 2.93939,-3.17937 1.63967,-1.47972 2.73945,-2.21959 3.29935,-2.21959 0.63987,0 1.8796,0.16 3.71919,0.47999 l 1.67971,0.95981 c 0.71983,-1.43974 1.8796,-2.15961 3.47927,-2.15961 0.7199,0 1.65972,-0.79984 2.81945,-2.39952 1.15979,-1.59967 2.41954,-2.39951 3.77925,-2.39951 3.67923,0 5.47886,1.11977 5.39889,3.35932 l 1.79966,-0.4799 c 0,-0.31994 0.15997,-1.67968 0.47991,-4.07923 0.87984,-0.79981 1.99961,-1.39967 3.35932,-1.79957 0.3999,-3.35935 1.3997,-5.03903 2.99938,-5.03903 1.59968,0 2.95942,0.35992 4.07922,1.07976 0.63987,-1.91961 0.95981,-2.91941 0.95981,-2.99937 0.31993,-0.47988 1.19974,-1.07977 2.63942,-1.79966 0.55991,-2.07956 0.83986,-4.47904 0.83986,-7.19847 z"
         sodipodi:nodetypes="scsscssssccsccscscscccsscccscscccsccsscscccccsccsssccscccccsscsscscscccccscccccccccccccccscsccccsccscccsssscccsccccccscsccsssccscsccscssscsscsccccsscccscccsccscssccccsssccscsccscscsscscssscscccsccssccscsccccscccs" />
      <path
         d="m 369.53197,800.24469 c -1.27974,0.23996 -3.15934,0.83985 -5.6388,1.79966 -7.51852,4.79903 -11.27778,9.918 -11.27778,15.35691 0,3.11939 0.63987,5.55892 1.91962,7.31859 1.83964,2.31952 3.71927,4.59906 5.63888,6.83861 2.7994,3.59926 4.1991,5.87879 4.1991,6.8386 l 0,8.99821 c -1.75962,1.43969 -4.19912,3.15935 -7.31851,5.15899 2.39954,-2.87948 3.59932,-5.23901 3.59932,-7.0786 0,-2.95939 -0.39994,-5.15896 -1.1998,-6.5987 -0.95981,-0.63987 -2.35951,-1.71965 -4.1991,-3.23937 -3.59932,-3.43926 -5.91887,-6.51864 -6.95864,-9.23812 -0.87984,-2.31951 -1.31976,-6.03876 -1.31976,-11.15773 0,-9.99804 7.51849,-14.99705 22.55547,-14.99705 z m -36.95257,52.78939 -0.11996,3.95927 c -0.0799,3.43932 -1.65965,6.0188 -4.73906,7.73843 -3.0794,1.71963 -6.05878,3.3393 -8.93815,4.85901 -1.91961,1.43974 -2.87942,2.6795 -2.87942,3.71928 0,2.55948 2.19954,5.15896 6.59861,7.79841 -4.71907,-0.95981 -7.19855,-1.4797 -7.43846,-1.55967 -2.31958,-1.03983 -3.47936,-3.07943 -3.47936,-6.11879 0,-3.03936 1.27974,-5.55886 3.83922,-7.5585 2.55949,-1.51971 5.07899,-3.03939 7.55851,-4.55904 1.35971,-0.87984 2.51949,-2.63949 3.47936,-5.27894 0.0799,-0.23997 0.11996,-0.47993 0.11996,-0.7199 l 0,-0.35995 c -0.95981,-0.71984 -4.83903,-2.71943 -11.63764,-5.99875 -4.7991,-2.23955 -7.83851,-5.23895 -9.11826,-8.99821 -0.23991,-0.55985 -0.35986,-2.51945 -0.35986,-5.8788 0,-1.67965 0.11995,-2.91941 0.35986,-3.71927 1.1198,-4.4791 4.99904,-6.71865 11.63773,-6.71865 8.55829,0 12.83744,2.35953 12.83744,7.07859 0,1.03978 -0.41993,2.13956 -1.25978,3.29935 -0.83985,1.15973 -1.73968,1.7396 -2.69949,1.7396 -0.55984,0 -1.33969,-0.15994 -2.33954,-0.47982 -0.99979,-0.31999 -1.73962,-0.47999 -2.2195,-0.47999 0.15994,0 0.39988,0.04 0.71981,0.12004 2.47952,0 3.71928,-1.39972 3.71928,-4.19918 0,-3.27932 -2.07959,-4.91899 -6.23875,-4.91899 -3.59926,0 -5.99878,0.87981 -7.19855,2.63943 -0.87984,1.35977 -1.31976,3.91926 -1.31976,7.67846 0,0.23997 0.04,0.51991 0.11996,0.83985 0.79986,3.59926 4.59911,6.75864 11.39773,9.47812 6.39871,2.55948 9.59807,4.75902 9.59807,6.59861 z"
         id="path4249"
         inkscape:connector-curvature="0"
         style="font-style:normal;font-weight:normal;font-size:medium;font-family:Dialog;color-interpolation:auto;fill:#c3c300;fill-opacity:1;stroke:#c3c300;stroke-width:0.85300004;stroke-linecap:square;stroke-linejoin:miter;stroke-miterlimit:10;stroke-dasharray:none;stroke-dashoffset:0;stroke-opacity:1;color-rendering:auto;image-rendering:auto;shape-rendering:auto;text-rendering:auto"
         sodipodi:nodetypes="ccsccsccscccscccscsccscccscccscsscscccsscscsc" />
      <path
         sodipodi:nodetypes="cscsscscscccccscccccccccccccccscsccccsccscccsssscccsccccccscsccsssccscsccscssscsscscccccscccscccsccscssccccsssccscsccscscsscscssscscccsccssccscsccccsccc"
         d="m 395.92667,935.57749 c 0,-2.15952 -0.91982,-4.27909 -2.75947,-6.3587 -3.83923,-4.39908 -8.23833,-6.59861 -13.19731,-6.59861 l -2.03956,0 c -5.199,0 -9.1982,0.15994 -11.99759,0.47982 -2.31958,3.11939 -4.35917,4.67908 -6.11879,4.67908 -0.79987,0 -1.6397,-0.87981 -2.51948,-2.63943 l -23.51527,0 c -0.23997,0 -0.71987,-0.31994 -1.43971,-0.95981 -1.27974,-0.08 -2.1196,-0.51994 -2.51956,-1.31975 0.5599,-0.23997 1.35977,-0.79987 2.3996,-1.67971 1.51966,0 2.75938,0.47993 3.71919,1.4398 0.79987,-0.32 2.15961,-1.51976 4.07922,-3.59932 1.11975,-0.0799 1.71964,-0.11996 1.79966,-0.11996 1.11975,0 2.07956,0.5199 2.87943,1.55967 0.71983,-0.23997 1.83958,-0.67989 3.35924,-1.31976 0.5599,-1.19977 1.71969,-1.83964 3.47936,-1.91961 2.23955,-0.15994 3.55928,-0.35989 3.95918,-0.59986 0.79982,-0.71984 1.99958,-1.43971 3.59932,-2.15961 1.27975,-1.83959 2.19954,-2.83938 2.75938,-2.99937 l 4.19918,0 c 0.3999,-1.11975 1.15976,-2.63943 2.27956,-4.55904 -0.5599,0 -1.15978,-0.31994 -1.79965,-0.95981 l 0,-3.35933 c 0.63987,-0.9598 1.43971,-1.39972 2.39951,-1.31975 l 2.75947,0 c -0.23997,-0.39991 -1.1198,-1.27972 -2.63951,-2.63943 l 0,-3.23937 c 1.03983,-0.63987 2.51956,-1.63969 4.43917,-2.99946 -1.1198,-1.19972 -1.67971,-2.07952 -1.67971,-2.63943 0,-0.23997 0.0799,-0.61988 0.23991,-1.13974 0.16,-0.51991 0.24,-0.89985 0.24,-1.13982 0,-0.3999 -0.37992,-1.17975 -1.13974,-2.33954 -0.75989,-1.15973 -1.17981,-1.93958 -1.25978,-2.33954 -0.15994,-1.99958 -1.27972,-4.79901 -3.35932,-8.39827 -0.55991,-0.47988 -2.81945,-1.23973 -6.77863,-2.27957 -3.95924,-1.03977 -6.41874,-1.55966 -7.37849,-1.55966 -3.43932,0 -5.55892,0.59988 -6.35878,1.79966 0.87984,0.0799 2.11959,0.47988 3.71927,1.19972 4.39913,3.67928 6.5987,7.55852 6.5987,11.63772 0,2.15952 -0.55991,4.87895 -1.67971,8.15828 -1.51965,4.4791 -5.2389,8.55829 -11.15774,12.23758 -1.91961,1.51971 -4.35912,3.23937 -7.3185,5.15898 -3.67929,1.27975 -7.1586,1.91962 -10.43793,1.91962 -3.11939,0 -7.81843,-0.35995 -14.09713,-1.07985 -6.27876,-0.71984 -10.97784,-1.07976 -14.09722,-1.07976 -1.35971,0 -4.899,0.35992 -10.61786,1.07976 -5.71886,0.7199 -8.97819,1.2798 -9.778,1.67971 -0.39991,0.47993 -1.11978,1.1198 -2.15961,1.91961 -0.63987,0.15994 -1.4797,0.51986 -2.51947,1.07976 -4.23914,4.0792 -6.3587,10.03802 -6.3587,17.87647 0,8.9582 6.63865,15.47687 19.91595,19.55601 2.31952,0.31994 5.71883,0.87984 10.19793,1.6797 6.63868,1.59968 9.1182,2.39952 7.43855,2.39952 1.75967,0 4.15919,-0.43991 7.19855,-1.31975 3.5193,-1.03978 5.85884,-1.63967 7.01862,-1.79966 1.15973,-0.15995 4.13912,-0.23991 8.93815,-0.23991 1.1198,-1.43974 1.95966,-2.15961 2.51956,-2.15961 0.55985,0 1.31967,0.19995 2.27948,0.59986 0.95981,0.39996 1.71966,0.59994 2.27956,0.59994 0.87984,0 2.17958,-0.08 3.89921,-0.23999 1.71963,-0.15995 2.97939,-0.23991 3.77925,-0.23991 -0.23997,-0.87984 -0.35995,-1.63969 -0.35995,-2.27957 0,-1.59967 0.9998,-2.39951 2.99938,-2.39951 2.95944,0 4.43917,1.0398 4.43917,3.11941 0,0.31988 -0.04,0.5998 -0.11996,0.83977 l 1.43963,0 c 1.43974,-1.19972 2.95945,-1.79958 4.55913,-1.79958 2.71942,0 3.79921,1.19975 3.23937,3.59924 1.43968,0.79986 2.2795,1.1998 2.51947,1.1998 0.3999,0 0.99979,-0.19998 1.79966,-0.59994 0.79981,-0.39991 1.35968,-0.63985 1.67962,-0.71982 l 3.59932,0 c 0.79981,0 1.59965,-0.19995 2.39952,-0.59985 0.79981,-0.39997 1.2397,-0.59995 1.31967,-0.59995 0.47993,0 1.15981,0.17996 2.03965,0.53988 0.87984,0.35993 1.55969,0.53988 2.03957,0.53988 0.71984,0 1.77964,-0.67985 3.17939,-2.03956 1.3997,-1.35971 2.97939,-2.03957 4.73906,-2.03957 0.31988,0 0.79975,0.04 1.43963,0.11995 0.63987,0.0799 1.1198,0.11996 1.43979,0.11996 -0.5599,-0.95975 -0.83985,-1.83957 -0.83985,-2.63943 0,-1.03978 0.4799,-1.79964 1.43971,-2.27956 0.79981,-0.08 1.99956,-0.15995 3.59923,-0.23991 0.55991,-1.35971 1.51972,-3.39932 2.87943,-6.1188 0.0799,-0.15999 0.63987,-0.47992 1.6797,-0.9598 0.79981,-0.3999 1.19972,-1.11978 1.19972,-2.15961 z m 24.83503,36.95266 c 0,-3.35935 -2.59948,-8.11841 -7.79841,-14.27715 -0.39997,-0.47993 -3.2394,-2.59953 -8.51831,-6.35879 -1.19978,2.23961 -3.43933,5.27902 -6.71865,9.11825 -6.39872,4.71901 -12.8774,7.07852 -19.43606,7.07852 -5.11897,0 -11.87763,-1.23976 -20.27598,-3.71928 -6.8786,-1.99958 -10.83781,-2.95939 -11.87764,-2.87942 l -34.07307,3.23937 c -0.47993,0.08 -1.07982,0.12004 -1.79966,0.12004 -9.67804,0 -19.19614,-1.15979 -28.5543,-3.47936 -3.51929,-0.87978 -9.71803,-5.35888 -18.5962,-13.4373 -2.31958,0.0799 -6.19882,2.19956 -11.63772,6.35878 -6.79862,5.19894 -10.95779,10.31791 -12.4775,15.35692 -0.79981,2.63945 -1.19971,6.8386 -1.19971,12.59744 0,3.03937 0.83982,6.99855 2.51947,11.87755 1.67965,4.87907 3.47928,8.51838 5.39889,10.91788 1.67965,2.1595 4.15917,3.6792 7.43855,4.5591 2.87942,0.4799 5.75884,0.9997 8.63826,1.5596 0.87984,0.3999 2.23955,0.9198 4.07914,1.5597 1.91962,0.3199 4.23917,0.4799 6.95865,0.4799 0.63987,0 1.53967,-0.06 2.6994,-0.1799 1.15979,-0.12 2.05962,-0.18 2.69949,-0.18 0.87984,0 1.99961,0.2 3.35933,0.5999 1.67964,0.3999 2.79942,0.6399 3.35932,0.7198 3.99922,0.5599 7.59852,0.8399 10.79787,0.8399 1.11975,0 5.39887,-0.7599 12.83736,-2.2796 1.19978,-2.1596 2.23957,-3.2394 3.11941,-3.2394 1.19972,0 2.11951,0.2 2.75939,0.6 0.87984,0.7198 1.47972,1.1197 1.79966,1.1997 0.47993,-0.9598 1.27976,-1.4397 2.39951,-1.4397 0.47993,0 1.15982,0.12 2.03966,0.3599 0.87978,0.24 1.55964,0.36 2.03957,0.36 l 3.47928,0 c -0.0799,-1.3598 1.07978,-2.6395 3.47928,-3.8392 2.0796,-1.0398 3.91925,-1.5597 5.51893,-1.5597 2.31952,0 3.47928,0.8398 3.47928,2.5195 l 2.27956,0 c 0.47988,0 1.37968,-0.5599 2.69941,-1.6797 1.31978,-1.1198 2.13962,-1.6797 2.45949,-1.6797 4.63909,0 7.41856,1.0998 8.33838,3.2994 0.91982,2.1995 1.89962,3.2993 2.9394,3.2993 0.5599,0 1.15979,-0.1199 1.79966,-0.3599 -0.0799,-0.5599 -0.11996,-1.0398 -0.11996,-1.4397 0,-2.6395 0.75983,-3.9592 2.27948,-3.9592 l 3.47937,0.4798 c 0.31987,0.24 0.67979,0.9199 1.07976,2.0397 l 1.43971,0 c 3.51929,0 6.3587,-0.8799 8.51822,-2.6395 0.08,-0.6399 0.28001,-1.5197 0.59995,-2.6395 0.31993,-0.6398 1.29973,-1.6996 2.93939,-3.17937 1.63967,-1.47972 2.73945,-2.21959 3.29935,-2.21959 0.63987,0 1.8796,0.16 3.71919,0.47999 l 1.67971,0.95981 c 0.71983,-1.43974 1.8796,-2.15961 3.47927,-2.15961 0.7199,0 1.65972,-0.79984 2.81945,-2.39952 1.15979,-1.59967 2.41954,-2.39951 3.77925,-2.39951 3.67923,0 5.47886,1.11977 5.39889,3.35932 l 1.79966,-0.4799 c 0,-0.31994 0.15997,-1.67968 0.47991,-4.07923 0.87984,-0.79981 1.99961,-1.39967 3.35932,-1.79957 0.3999,-3.35935 1.3997,-5.03903 2.99938,-5.03903 1.59968,0 2.95942,0.35992 4.07922,1.07976 0.63987,-1.91961 0.95981,-2.91941 0.95981,-2.99937 0.31993,-0.47988 1.19974,-1.07977 2.63942,-1.79966 0.55991,-2.07956 0.83986,-4.47904 0.83986,-7.19847 z"
         id="path4251"
         inkscape:connector-curvature="0"
         style="font-style:normal;font-weight:normal;font-size:medium;font-family:Dialog;color-interpolation:auto;fill:#946423;fill-opacity:1;stroke:none;stroke-width:0.85300004;stroke-linecap:square;stroke-linejoin:miter;stroke-miterlimit:10;stroke-dasharray:none;stroke-dashoffset:0;stroke-opacity:1;color-rendering:auto;image-rendering:auto;shape-rendering:auto;text-rendering:auto" />
    </g>
    <text
       xml:space="preserve"
       style="font-style:normal;font-variant:normal;font-weight:500;font-stretch:normal;font-size:118.79341125px;line-height:100%;font-family:Roboto;-inkscape-font-specification:'Roboto Medium';text-align:center;letter-spacing:0px;word-spacing:0px;text-anchor:middle;fill:#d28e32;fill-opacity:1;stroke:none;stroke-width:1px;stroke-linecap:butt;stroke-linejoin:miter;stroke-opacity:1"
       x="108.78028"
       y="896.93298"
       id="text3417"
       sodipodi:linespacing="100%"><tspan
         sodipodi:role="line"
         id="tspan3419"
         x="108.78028"
         y="896.93298">Shit</tspan><tspan
         sodipodi:role="line"
         x="108.78028"
         y="1015.7264"
         id="tspan3423">List</tspan></text>
  </g>
</svg>
