<?xml version="1.0" encoding="UTF-8" standalone="no"?>
<svg
   xmlns:dc="http://purl.org/dc/elements/1.1/"
   xmlns:cc="http://creativecommons.org/ns#"
   xmlns:rdf="http://www.w3.org/1999/02/22-rdf-syntax-ns#"
   xmlns:svg="http://www.w3.org/2000/svg"
   xmlns="http://www.w3.org/2000/svg"
   xmlns:sodipodi="http://sodipodi.sourceforge.net/DTD/sodipodi-0.dtd"
   xmlns:inkscape="http://www.inkscape.org/namespaces/inkscape"
   stroke-miterlimit="10"
   font-weight="normal"
   font-style="normal"
   font-size="12"
   id="svg2"
   version="1.1"
   inkscape:version="0.91 r13725"
   sodipodi:docname="pile_of_poo.svg"
   width="262.82819"
   height="262.82819"
   style="font-style:normal;font-weight:normal;font-size:12px;font-family:Dialog;color-interpolation:auto;fill:#000000;fill-opacity:1;stroke:#000000;stroke-width:1;stroke-linecap:square;stroke-linejoin:miter;stroke-miterlimit:10;stroke-dasharray:none;stroke-dashoffset:0;stroke-opacity:1;color-rendering:auto;image-rendering:auto;shape-rendering:auto;text-rendering:auto">
  <metadata
     id="metadata13">
    <rdf:RDF>
      <cc:Work
         rdf:about="">
        <dc:format>image/svg+xml</dc:format>
        <dc:type
           rdf:resource="http://purl.org/dc/dcmitype/StillImage" />
        <dc:title></dc:title>
      </cc:Work>
    </rdf:RDF>
  </metadata>
  <sodipodi:namedview
     pagecolor="#ffffff"
     bordercolor="#666666"
     borderopacity="1"
     objecttolerance="10"
     gridtolerance="10"
     guidetolerance="10"
     inkscape:pageopacity="0"
     inkscape:pageshadow="2"
     inkscape:window-width="1920"
     inkscape:window-height="1025"
     id="namedview11"
     showgrid="false"
     fit-margin-top="0"
     fit-margin-left="0"
     fit-margin-right="0"
     fit-margin-bottom="0"
     inkscape:zoom="2.36"
     inkscape:cx="110.29083"
     inkscape:cy="135.94205"
     inkscape:window-x="0"
     inkscape:window-y="0"
     inkscape:window-maximized="1"
     inkscape:current-layer="svg2" />
  <!--Unicode Character 'PILE OF POO' (U+1F4A9)-->
  <defs
     id="genericDefs" />
  <g
     id="g5"
     transform="translate(2.671943,-75.656192)">
    <g
       id="g7">
      <path
         d="m 175.0781,75.6562 q -2.25,0.4219 -6.6093,2.1094 -13.2188,8.4375 -13.2188,18 0,5.4844 2.25,8.5782 3.2344,4.0781 6.6094,8.0156 4.9218,6.3281 4.9218,8.0156 l 0,10.5469 q -3.0937,2.5312 -8.5781,6.0469 4.2188,-5.0626 4.2188,-8.2969 0,-5.2031 -1.4063,-7.7344 -1.6875,-1.125 -4.9218,-3.7969 -6.3282,-6.0468 -8.1563,-10.8281 -1.5469,-4.0781 -1.5469,-13.0781 0,-17.5782 26.4375,-17.5782 z m -43.3125,61.875 -0.1406,4.6407 q -0.1406,6.0469 -5.5547,9.0703 -5.4141,3.0234 -10.4765,5.6953 -3.375,2.5313 -3.375,4.3594 0,4.5 7.7343,9.1406 -8.2969,-1.6875 -8.7187,-1.8281 -4.0782,-1.8282 -4.0782,-7.1719 0,-5.3437 4.5,-8.8594 4.5,-2.6719 8.8594,-5.3437 2.3906,-1.5469 4.0782,-6.1875 0.1406,-0.4219 0.1406,-0.8438 l 0,-0.4219 q -1.6875,-1.2656 -13.6406,-7.0312 -8.4376,-3.9375 -10.6876,-10.5469 -0.4218,-0.9843 -0.4218,-6.8906 0,-2.9531 0.4218,-4.3594 1.9688,-7.875 13.6407,-7.875 15.0469,0 15.0469,8.2969 0,1.8281 -1.4766,3.8672 -1.4766,2.039 -3.1641,2.039 -0.9843,0 -2.7422,-0.5624 -1.7578,-0.5626 -2.6015,-0.5626 0.2812,0 0.8437,0.1407 4.3594,0 4.3594,-4.9219 0,-5.7656 -7.3125,-5.7656 -6.3281,0 -8.4375,3.0937 -1.5469,2.3907 -1.5469,9 0,0.4219 0.1406,0.9844 1.4063,6.3281 13.3594,11.1094 11.25,4.5 11.25,7.7343 z m 114.1875,161.5782 q 0,10.2656 -11.6719,18.5625 -9.1406,6.3281 -21.2343,9.4219 -18.1407,4.6406 -19.4063,4.6406 -0.7031,0 -2.25,-0.211 -1.5468,-0.2109 -2.25,-0.2109 -2.9531,0 -8.7187,1.8984 -5.7657,1.8985 -8.7188,1.8985 l -24.3281,0 q -2.3906,0 -6.4688,1.125 -4.6406,1.2656 -6.4687,1.4062 -8.2969,0.8438 -19.125,0.8438 -23.0625,0 -35.4375,-1.6875 -0.7031,-0.1407 -2.6016,-0.7031 -1.8984,-0.5626 -2.8828,-0.5626 -0.5625,0 -1.9687,0.6329 -1.4063,0.6328 -2.3907,0.6328 -13.9218,0 -18.5624,-0.9844 -1.9688,-0.7031 -6.1876,-2.25 -4.2187,-1.5469 -9.4218,-3.7969 -0.4219,-0.7031 -1.2656,-1.8281 -2.5313,-1.2656 -6.8907,-3.6563 -16.1719,-10.6874 -16.1719,-46.125 0,-6.6093 7.875,-15.4687 6.75,-7.5937 13.9219,-11.6719 5.0625,-2.1094 14.7657,-6.8906 -0.2813,-2.25 -0.7032,-6.75 1.125,-1.2656 1.125,-2.8125 0,-0.7031 -0.3515,-2.25 -0.3516,-1.5469 -0.3516,-2.25 0,-5.9063 3.9375,-12.9375 1.4062,-1.4062 4.0781,-4.3594 8.0157,-9.5625 17.0157,-11.5312 12.7968,-2.8125 17.4374,-2.8125 3.9376,0 7.5938,0.5625 0.8438,0.1406 3.0234,0.914 2.1797,0.7735 3.0235,0.7735 l 15.75,0 q 1.4062,0 4.2187,0.4219 2.8125,0.4218 4.2188,0.4218 2.1094,0 8.2968,-3.7968 7.875,-4.7813 10.6876,-7.3126 5.2031,-4.6406 7.0312,-10.6874 0.7031,-2.3907 0.7031,-2.1094 0,-3.2344 -2.25,-8.1563 -0.8437,-1.6875 -4.0078,-3.0234 -3.1641,-1.3359 -4.4297,-3.7266 -7.7344,2.6719 -7.4531,8.5781 l -1.4063,0 q -1.9687,0 -1.9687,-4.2187 0,-12.9375 25.3125,-12.9375 1.2656,0 10.2656,2.5312 11.6719,3.2344 18.2813,13.5 6.3281,9.7032 6.3281,22.2188 0,10.4062 -0.9844,14.0625 -1.4062,2.1094 -3.7968,5.9063 15.6093,0.2812 23.4843,10.6874 3.7969,5.0626 4.5,19.8282 12.0938,3.6562 21.2344,20.5312 8.0156,14.7656 8.0156,35.7188 z m -39.9375,-64.8282 q 0,-3.7968 -3.2344,-7.4531 -6.75,-7.7343 -15.4687,-7.7343 l -2.3906,0 q -9.1407,0 -14.0625,0.5624 -4.0782,5.4844 -7.1719,5.4844 -1.4063,0 -2.9531,-3.0937 l -27.5625,0 q -0.4219,0 -1.6875,-1.125 -2.25,-0.1407 -2.9532,-1.5469 0.9844,-0.4219 2.8126,-1.9688 2.6718,0 4.3593,1.6876 1.4063,-0.5626 4.7813,-4.2188 1.9687,-0.1406 2.1094,-0.1406 1.9687,0 3.375,1.8281 1.2656,-0.4219 3.9374,-1.5469 0.9844,-2.1094 4.0782,-2.25 3.9375,-0.2812 4.6406,-0.7031 1.4062,-1.2656 4.2188,-2.5313 2.25,-3.2343 3.2343,-3.5156 0,0 4.9219,0 0.7031,-1.9687 2.6719,-5.3437 -0.9844,0 -2.1094,-1.125 l 0,-3.9375 q 1.125,-1.6875 2.8125,-1.5469 3.2344,0 3.2344,0 -0.4219,-0.7031 -3.0938,-3.0937 l 0,-3.7969 q 1.8282,-1.125 5.2032,-3.5157 -1.9688,-2.1093 -1.9688,-3.0937 0,-0.4219 0.2812,-1.3359 0.2813,-0.9141 0.2813,-1.336 0,-0.7031 -1.3359,-2.7422 -1.336,-2.039 -1.4766,-2.7422 -0.2812,-3.5156 -3.9375,-9.8437 -0.9844,-0.8437 -7.9453,-2.6719 -6.961,-1.8281 -8.6484,-1.8281 -6.0469,0 -7.4532,2.1094 1.5469,0.1406 4.3594,1.4062 7.7344,6.4688 7.7344,13.6407 0,3.7968 -1.9688,9.5624 -2.6718,7.875 -13.0781,14.3438 -3.375,2.6719 -8.5781,6.0469 -6.4688,2.25 -12.2344,2.25 -5.4844,0 -16.5234,-1.2657 -11.0391,-1.2656 -16.5235,-1.2656 -2.3906,0 -12.4453,1.2656 -10.0547,1.2657 -11.4609,1.9688 -0.7031,0.8438 -2.5313,2.25 -1.125,0.2812 -2.9531,1.2656 -7.4531,7.1719 -7.4531,20.9532 0,15.75 23.3437,22.9218 4.0781,0.5625 11.9531,1.9688 11.6719,2.8125 8.7188,2.8125 3.0938,0 8.4375,-1.5469 6.1875,-1.8281 8.2266,-2.1094 2.039,-0.2812 10.4765,-0.2812 1.9688,-2.5313 2.9532,-2.5313 0.9843,0 2.6718,0.7031 1.6875,0.7032 2.6719,0.7032 1.5469,0 4.5703,-0.2813 3.0234,-0.2812 4.4297,-0.2812 -0.4219,-1.5469 -0.4219,-2.6719 0,-2.8125 3.5156,-2.8125 5.2032,0 5.2032,3.6563 0,0.5624 -0.1406,0.9843 l 1.6874,0 q 2.5313,-2.1093 5.3438,-2.1093 4.7812,0 3.7969,4.2187 2.5312,1.4063 2.9531,1.4063 0.7031,0 2.1094,-0.7032 1.4062,-0.7031 1.9687,-0.8437 0.1407,0 4.2188,0 1.4062,0 2.8125,-0.7031 1.4062,-0.7032 1.5468,-0.7032 0.8438,0 2.3907,0.6328 1.5469,0.6328 2.3906,0.6328 1.2656,0 3.7266,-2.3906 2.4609,-2.3906 5.5547,-2.3906 0.5624,0 1.6874,0.1406 1.125,0.1406 1.6876,0.1406 -0.9844,-1.6874 -0.9844,-3.0937 0,-1.8281 1.6875,-2.6719 1.4062,-0.1406 4.2187,-0.2812 0.9844,-2.3906 3.375,-7.1719 0.1406,-0.2813 1.9688,-1.125 1.4062,-0.7031 1.4062,-2.5313 z m 29.1094,43.3126 q 0,-5.9063 -9.1406,-16.7344 -0.7032,-0.8438 -9.9844,-7.4532 -2.1094,3.9376 -7.875,10.6876 -11.25,8.2968 -22.7812,8.2968 -9,0 -23.7657,-4.3594 -12.0937,-3.5156 -13.9219,-3.375 l -39.9374,3.7969 q -0.8438,0.1407 -2.1094,0.1407 -17.0156,0 -33.4688,-4.0782 -6.1875,-1.5468 -21.7968,-15.75 -4.0782,0.1406 -13.6407,7.4532 -11.9531,9.1406 -14.625,18 -1.4062,4.6406 -1.4062,14.7656 0,5.3437 2.9531,13.9218 2.9531,8.5782 6.3281,12.7969 2.9531,3.7969 8.7188,5.3438 5.0625,0.8437 10.125,1.8281 1.5469,0.7031 4.7812,1.8281 3.375,0.5625 8.1563,0.5625 1.125,0 3.164,-0.2109 2.0391,-0.2109 3.1641,-0.2109 1.5469,0 3.9375,0.7031 2.9531,0.7031 3.9375,0.8437 7.0313,0.9844 12.6563,0.9844 1.9687,0 15.0468,-2.6719 2.1094,-3.7969 3.6563,-3.7969 2.1093,0 3.2343,0.7032 1.5469,1.2656 2.1094,1.4062 0.8438,-1.6875 2.8125,-1.6875 0.8438,0 2.3907,0.4219 1.5468,0.4219 2.3906,0.4219 l 4.0781,0 q -0.1406,-2.3907 4.0781,-4.5 3.6563,-1.8281 6.4688,-1.8281 4.0781,0 4.0781,2.9531 l 2.6719,0 q 0.8437,0 3.164,-1.9688 2.3204,-1.9687 2.8828,-1.9687 8.1563,0 9.7735,3.8672 1.6172,3.8672 3.4453,3.8672 0.9844,0 2.1094,-0.4219 -0.1406,-0.9844 -0.1406,-1.6875 0,-4.6406 2.6718,-4.6406 0,0 4.0782,0.5624 0.5624,0.4219 1.2656,2.3907 l 1.6875,0 q 6.1875,0 9.9843,-3.0938 0.1407,-1.125 0.7032,-3.0937 0.5625,-1.125 3.4453,-3.7266 2.8828,-2.6016 3.8672,-2.6016 1.125,0 4.3593,0.5626 l 1.9688,1.125 q 1.2656,-2.5313 4.0781,-2.5313 1.2657,0 3.3047,-2.8125 2.0391,-2.8125 4.4297,-2.8125 6.4687,0 6.3281,3.9375 l 2.1094,-0.5625 q 0,-0.5625 0.5625,-4.7813 1.5469,-1.4062 3.9375,-2.1093 0.7031,-5.9063 3.5156,-5.9063 2.8125,0 4.7813,1.2656 1.125,-3.375 1.125,-3.5156 0.5625,-0.8437 3.0937,-2.1094 0.9844,-3.6562 0.9844,-8.4374 z"
         id="path9"
         inkscape:connector-curvature="0"
         style="stroke:none" />
    </g>
  </g>
</svg>
